<svg xmlns="http://www.w3.org/2000/svg" viewBox="0 0 177.65 45.82"><defs><style>.cls-1{fill:#1d1d1b;}.cls-2{fill:#fff;}</style></defs><g id="Calque_2" data-name="Calque 2"><g id="Calque_1-2" data-name="Calque 1"><rect class="cls-1" x="3.12" y="4.12" width="173.85" height="41.03" rx="20.51"/><path class="cls-1" d="M156.46,45.82H23.63a21.19,21.19,0,0,1,0-42.37H156.46a21.19,21.19,0,1,1,0,42.37ZM23.63,4.79a19.84,19.84,0,0,0,0,39.68H156.46a19.84,19.84,0,1,0,0-39.68Z"/><rect class="cls-2" x="0.67" y="0.67" width="173.85" height="41.03" rx="20.51"/><path class="cls-1" d="M154,42.38H21.19A21.19,21.19,0,0,1,21.19,0H154a21.19,21.19,0,0,1,0,42.38ZM21.19,1.35a19.84,19.84,0,0,0,0,39.68H154a19.84,19.84,0,1,0,0-39.68Z"/></g></g></svg>