<svg xmlns="http://www.w3.org/2000/svg" viewBox="0 0 43.15 43.14"><defs><style>.cls-1{fill:#1d1d1b;}.cls-2{fill:#f08586;}</style></defs><g id="Calque_2" data-name="Calque 2"><g id="Calque_1-2" data-name="Calque 1"><path class="cls-1" d="M39.15,20.57A18.57,18.57,0,0,1,2,21.61,20.56,20.56,0,0,1,21.61,2,18.6,18.6,0,0,1,39.15,20.57Z"/><path class="cls-1" d="M43.15,22.57A20.56,20.56,0,0,1,7.07,36.07,20.35,20.35,0,0,1,3.36,29.9l0,0A20.35,20.35,0,0,1,2,22.57q0-.48,0-1A18.57,18.57,0,1,0,21.61,2q.48,0,1,0A20.61,20.61,0,0,1,43.15,22.57Z"/><path class="cls-2" d="M39.15,20.57A18.57,18.57,0,0,1,2,21.61c0-.34,0-.69,0-1A18.59,18.59,0,0,1,20.57,2c.35,0,.7,0,1,0A18.6,18.6,0,0,1,39.15,20.57Z"/><path class="cls-1" d="M36.1,7.09A20.57,20.57,0,0,0,22.57,2q-.48,0-1,0c-.34,0-.69,0-1,0A18.59,18.59,0,0,0,2,20.57c0,.35,0,.7,0,1s0,.64,0,1a20.35,20.35,0,0,0,1.34,7.3l0,0a20.35,20.35,0,0,0,3.71,6.17,20.56,20.56,0,1,1,29-29Z"/><path class="cls-1" d="M22,20.57,28.56,14a1,1,0,0,0,0-1.42,1,1,0,0,0-1.41,0l-6.58,6.57L14,12.58a1,1,0,0,0-1.41,0,1,1,0,0,0,0,1.42l6.57,6.57-6.57,6.57a1,1,0,0,0,0,1.41,1,1,0,0,0,1.41,0L20.57,22l6.58,6.57a1,1,0,0,0,.7.3,1,1,0,0,0,.71-1.71Z"/></g></g></svg>