<svg xmlns="http://www.w3.org/2000/svg" viewBox="0 0 182.96 174.65"><defs><style>.cls-1{fill:#1d1d1b;}</style></defs><g id="Calque_2" data-name="Calque 2"><g id="Calque_1-2" data-name="Calque 1"><path class="cls-1" d="M61.74,26.38l47.42-23a33.28,33.28,0,0,1,36.4,4.83l26,22.6A33.27,33.27,0,0,1,183,55.89V66.48a33.2,33.2,0,0,1-3,13.84l-7.19,15.74a33.24,33.24,0,0,0-.83,25.69h0a33.29,33.29,0,0,1-17.09,42l-16.73,7.77a33.23,33.23,0,0,1-23,1.86L60.62,158.19a32.55,32.55,0,0,0-3.36-.75l-23.13-3.95A33.28,33.28,0,0,1,10.3,136.22L3.85,124A33.22,33.22,0,0,1,.26,104.33L2.5,86.4a33.29,33.29,0,0,1,9.92-19.83l18-17.34a34.9,34.9,0,0,1,3.29-2.79L56.47,29.57A33.6,33.6,0,0,1,61.74,26.38Z"/></g></g></svg>