<svg xmlns="http://www.w3.org/2000/svg" viewBox="0 0 37.06 37.06"><defs><style>.cls-1,.cls-3{fill:#fff;}.cls-1{stroke:#1d1d1b;stroke-miterlimit:10;stroke-width:1.35px;}.cls-2{fill:#1d1d1b;}</style></defs><g id="Calque_2" data-name="Calque 2"><g id="Calque_1-2" data-name="Calque 1"><circle class="cls-1" cx="18.53" cy="18.53" r="17.85"/><path class="cls-2" d="M26.4,11.9H9.83l-.34-.83a.68.68,0,0,0-.62-.42H6.11V12h2.3l3,7.36v3.28a.69.69,0,0,0,.68.68H26.4V22H12.76V19.89H26.4a.67.67,0,0,0,.68-.67V12.57A.67.67,0,0,0,26.4,11.9Zm-.67,6.64H12.54l-2.16-5.3H25.73Z"/><polygon class="cls-3" points="25.73 13.25 25.73 18.54 12.54 18.54 10.38 13.24 25.73 13.25"/><path class="cls-2" d="M13,24A1.63,1.63,0,0,0,13,27.26h.08A1.63,1.63,0,0,0,13,24Zm.09,1.9a.26.26,0,0,1-.29-.26.29.29,0,0,1,.27-.29h0a.28.28,0,0,1,.28.26A.29.29,0,0,1,13.05,25.91Z"/><path class="cls-2" d="M24.7,24a1.63,1.63,0,0,0,.08,3.25h.08A1.63,1.63,0,0,0,24.7,24Zm.09,1.9a.27.27,0,0,1-.29-.26.29.29,0,0,1,.27-.29h0a.28.28,0,0,1,.28.26A.29.29,0,0,1,24.79,25.91Z"/></g></g></svg>