<?xml version="1.0" encoding="utf-8"?>
<!-- Generator: Adobe Illustrator 25.4.1, SVG Export Plug-In . SVG Version: 6.00 Build 0)  -->
<svg version="1.1" id="Calque_1" xmlns="http://www.w3.org/2000/svg" xmlns:xlink="http://www.w3.org/1999/xlink" x="0px" y="0px"
	 viewBox="0 0 180.6 172.7" style="enable-background:new 0 0 180.6 172.7;" xml:space="preserve">
<style type="text/css">
	.st0{fill:#FFFFFF;}
</style>
<g id="Calque_2_00000041997422015329060810000016275021970403935929_">
	<g id="Calque_1-2">
		<path class="st0" d="M61.1,2.3l-20.3,9.4c-4.7,2.2-8.6,5.7-11.2,10.1l-5.6,9.4c-2.1,3.5-3.3,7.5-3.6,11.6l-1.1,19.6
			c-0.3,4.3-1.6,8.6-4,12.2l0,0c-1.1,1.8-2.1,3.7-2.7,5.8L1.3,115c-1.6,5-1.7,10.5-0.1,15.5l1.9,6.1c1.2,3.8,3.2,7.2,5.9,10.1
			L24.6,163c5.6,5.9,13.7,8.7,21.8,7.6l28-3.7c2.6-0.3,5.1-0.3,7.7,0.1l19.1,3.3c0.8,0.1,1.6,0.2,2.4,0.3l26.9,2
			c3.1,0.2,6.3-0.1,9.3-1l13.7-4.2c6.4-2,11.9-6.4,15.1-12.3l9-16.6c2.7-5,3.6-10.8,2.7-16.4l-4.7-27.5c-0.2-0.9-0.4-1.8-0.6-2.6
			l-7.9-28.1c-0.6-2.1-1.4-4.1-2.5-5.9L150,32.6c-1.9-3.4-4.6-6.2-7.9-8.4l-17.5-11.7c-2.7-1.8-5.8-3.1-9-3.8L77,0.5
			C71.6-0.6,66,0.1,61.1,2.3z"/>
	</g>
</g>
</svg>
