<svg xmlns="http://www.w3.org/2000/svg" viewBox="0 0 181.42 171.73"><g id="Calque_2" data-name="Calque 2"><g id="Calque_1-2" data-name="Calque 1"><path d="M42.53,6.14,39.82,7.27A27.18,27.18,0,0,0,25.76,20.74L2.57,70.12A27.06,27.06,0,0,0,.27,85.48l4,28.08a27,27,0,0,0,4.86,12l7.7,10.65A27.09,27.09,0,0,0,33.3,146.88l15.64,3.25a27.12,27.12,0,0,1,6.11,2.05L79.83,164a27.42,27.42,0,0,0,5.26,1.86L106.43,171a27.07,27.07,0,0,0,15.46-.81l26.33-9.4a27.07,27.07,0,0,0,17.29-19.43l2.57-11.16a28,28,0,0,0,.62-4.17l2.68-38.29,3.72-32.62a27.77,27.77,0,0,1,.86-4.34l4.43-15.57A27,27,0,0,0,181,22.82l-.13-.69A27.06,27.06,0,0,0,160.56.76h0A27.07,27.07,0,0,0,150,.33L113,6.15A27.24,27.24,0,0,0,106.55,8L96.21,12.47a27.07,27.07,0,0,1-25.15-2L67.44,8.21A27.12,27.12,0,0,0,42.53,6.14Z"/></g></g></svg>