<?xml version="1.0" encoding="utf-8"?>
<!-- Generator: Adobe Illustrator 25.4.1, SVG Export Plug-In . SVG Version: 6.00 Build 0)  -->
<svg version="1.1" id="Calque_1" xmlns="http://www.w3.org/2000/svg" xmlns:xlink="http://www.w3.org/1999/xlink" x="0px" y="0px"
	 viewBox="0 0 181.4 171.7" style="enable-background:new 0 0 181.4 171.7;" xml:space="preserve">
<style type="text/css">
	.st0{fill:#FFFFFF;}
</style>
<g id="Calque_2_00000057856836920407398520000004232589626437104819_">
	<g id="Calque_1-2">
		<path class="st0" d="M42.5,6.1l-2.7,1.1c-6.2,2.6-11.2,7.4-14.1,13.5L2.6,70.1c-2.3,4.8-3.1,10.1-2.3,15.4l4,28.1
			c0.6,4.3,2.3,8.5,4.9,12l7.7,10.7c4,5.5,9.8,9.3,16.5,10.7l15.6,3.2c2.1,0.4,4.2,1.1,6.1,2.1L79.8,164c1.7,0.8,3.4,1.4,5.3,1.9
			l21.3,5.1c5.1,1.2,10.5,1,15.5-0.8l26.3-9.4c8.7-3.1,15.2-10.4,17.3-19.4l2.6-11.2c0.3-1.4,0.5-2.8,0.6-4.2l2.7-38.3l3.7-32.6
			c0.2-1.5,0.5-2.9,0.9-4.3l4.4-15.6c1.2-4,1.4-8.3,0.6-12.4l-0.1-0.7c-2-10.5-9.9-18.9-20.3-21.4l0,0c-3.5-0.8-7-1-10.6-0.4
			l-37,5.8c-2.2,0.3-4.4,1-6.4,1.8l-10.3,4.5c-8.2,3.5-17.6,2.8-25.2-2l-3.6-2.3C60,3.5,50.7,2.7,42.5,6.1z"/>
	</g>
</g>
</svg>
