<svg xmlns="http://www.w3.org/2000/svg" viewBox="0 0 180.39 173.16"><g id="Calque_2" data-name="Calque 2"><g id="Calque_1-2" data-name="Calque 1"><path d="M.48,58.48A22.94,22.94,0,0,1,6.26,37.93c2.25-2.3,20.4-10,27.07-15.31A111.23,111.23,0,0,1,64,4.83l8.95-3.35A23.41,23.41,0,0,1,87.36.85l15.45,4.28a23.56,23.56,0,0,0,6.53.85l17.47-.21A23.38,23.38,0,0,1,138.91,9h0A43.83,43.83,0,0,1,156.5,28.3l3.16,6.8a23.3,23.3,0,0,1,2.15,8.67l.1,1.9a125.21,125.21,0,0,0,7.68,37.23l.87,2.35c.22.57.41,1.16.58,1.75l6.32,22.27,2.31,9.11a23.35,23.35,0,0,1-1.66,16h0a64.05,64.05,0,0,1-10.93,15.81h0a54.94,54.94,0,0,1-23.32,14.66l-8.45,2.68a23.4,23.4,0,0,1-12.06.56l-21.62-4.71a23.26,23.26,0,0,0-10.91.23L70,169.05a23.52,23.52,0,0,1-3,.58L40.36,173a23.42,23.42,0,0,1-6.79-.14l-10.64-1.78a23.42,23.42,0,0,1-15.27-9.62L5.26,158A23.39,23.39,0,0,1,1,143.92l.74-26.73A22.19,22.19,0,0,1,2,114.5l3.5-24.39a23.14,23.14,0,0,0-.22-8Z"/></g></g></svg>