<?xml version="1.0" encoding="utf-8"?>
<!-- Generator: Adobe Illustrator 25.4.1, SVG Export Plug-In . SVG Version: 6.00 Build 0)  -->
<svg version="1.1" id="Calque_1" xmlns="http://www.w3.org/2000/svg" xmlns:xlink="http://www.w3.org/1999/xlink" x="0px" y="0px"
	 viewBox="0 0 180.4 173.2" style="enable-background:new 0 0 180.4 173.2;" xml:space="preserve">
<style type="text/css">
	.st0{fill:#FFFFFF;}
</style>
<g id="Calque_2_00000065050215342116666710000005928203188887552914_">
	<g id="Calque_1-2">
		<path class="st0" d="M0.5,58.5c-1.6-7.4,0.6-15.1,5.8-20.5c2.2-2.3,20.4-10,27.1-15.3C42.5,15.1,52.9,9.1,64,4.8l8.9-3.3
			c4.6-1.7,9.7-1.9,14.4-0.6l15.4,4.3c2.1,0.6,4.3,0.9,6.5,0.8l17.5-0.2c4.3,0,8.4,1.1,12.1,3.2l0,0c7.7,4.5,13.8,11.2,17.6,19.3
			l3.2,6.8c1.3,2.7,2,5.7,2.1,8.7l0.1,1.9c0.7,12.7,3.2,25.3,7.7,37.2l0.9,2.3c0.2,0.6,0.4,1.2,0.6,1.8l6.3,22.3l2.3,9.1
			c1.4,5.4,0.8,11-1.7,16l0,0c-2.8,5.8-6.5,11.1-10.9,15.8l0,0c-6.4,6.8-14.4,11.8-23.3,14.7l-8.4,2.7c-3.9,1.2-8.1,1.4-12.1,0.6
			l-21.6-4.7c-3.6-0.8-7.3-0.7-10.9,0.2L70,169c-1,0.3-2,0.5-3,0.6L40.4,173c-2.3,0.3-4.5,0.2-6.8-0.1l-10.6-1.8
			c-6.2-1-11.7-4.5-15.3-9.6L5.3,158c-2.9-4.1-4.4-9.1-4.3-14.1l0.7-26.7c0-0.9,0.1-1.8,0.3-2.7l3.5-24.4c0.4-2.7,0.3-5.4-0.2-8
			L0.5,58.5z"/>
	</g>
</g>
</svg>
