<?xml version="1.0" encoding="utf-8"?>
<!-- Generator: Adobe Illustrator 25.4.1, SVG Export Plug-In . SVG Version: 6.00 Build 0)  -->
<svg version="1.1" id="Calque_1" xmlns="http://www.w3.org/2000/svg" xmlns:xlink="http://www.w3.org/1999/xlink" x="0px" y="0px"
	 viewBox="0 0 183 174.6" style="enable-background:new 0 0 183 174.6;" xml:space="preserve">
<style type="text/css">
	.st0{fill:#FFFFFF;}
</style>
<g id="Calque_2_00000181784700208228256210000008915014103612120453_">
	<g id="Calque_1-2">
		<path class="st0" d="M61.7,26.4l47.4-23c12-5.8,26.3-3.9,36.4,4.8l26,22.6c7.3,6.3,11.4,15.5,11.4,25.1v10.6c0,4.8-1,9.5-3,13.8
			l-7.2,15.7c-3.7,8.1-4,17.4-0.8,25.7l0,0c6.2,16.3-1.3,34.6-17.1,42l-16.7,7.8c-7.2,3.3-15.4,4-23,1.9l-54.5-15.2
			c-1.1-0.3-2.2-0.6-3.4-0.8l-23.1-3.9c-10.2-1.7-19-8.1-23.8-17.3L3.8,124c-3.2-6-4.4-12.9-3.6-19.7l2.2-17.9
			c0.9-7.5,4.4-14.5,9.9-19.8l18-17.3c1-1,2.1-1.9,3.3-2.8l22.8-16.9C58.1,28.3,59.9,27.3,61.7,26.4z"/>
	</g>
</g>
</svg>
