<svg xmlns="http://www.w3.org/2000/svg" viewBox="0 0 180.62 172.67"><g id="Calque_2" data-name="Calque 2"><g id="Calque_1-2" data-name="Calque 1"><path d="M61.06,2.35,40.77,11.71a25.51,25.51,0,0,0-11.24,10.1l-5.6,9.39a25.59,25.59,0,0,0-3.56,11.6L19.23,62.45a25.46,25.46,0,0,1-4,12.22h0a25.9,25.9,0,0,0-2.73,5.78L1.26,115a25.54,25.54,0,0,0-.1,15.52l1.91,6.15A25.58,25.58,0,0,0,9,146.74L24.56,163a25.53,25.53,0,0,0,21.81,7.64l28-3.72a25.36,25.36,0,0,1,7.68.14l19.12,3.28c.81.13,1.63.23,2.45.29l26.91,2a25.39,25.39,0,0,0,9.29-1l13.73-4.17a25.53,25.53,0,0,0,15.06-12.32l9-16.64a25.51,25.51,0,0,0,2.68-16.4l-4.69-27.46A25.07,25.07,0,0,0,175,92l-7.85-28.11a25.45,25.45,0,0,0-2.5-5.94L150,32.6a25.57,25.57,0,0,0-7.86-8.4L124.64,12.49a25.47,25.47,0,0,0-9-3.79L77,.55A25.56,25.56,0,0,0,61.06,2.35Z"/></g></g></svg>